<svg width="50" height="50" viewBox="0 0 50 50" fill="none" xmlns="http://www.w3.org/2000/svg">
<g clip-path="url(#clip0_1681_43242)">
<path d="M37.6465 5L33.3863 9.24343C33.1678 9.21375 32.9593 9.19397 32.7408 9.17419C31.2115 8.56092 28.5005 8.12569 25.3128 10.5689L25.2433 10.6381L24.2006 11.6866C20.2681 9.02581 17.14 10.6678 16.2661 11.2415L12.3436 7.33438L0 19.6393L4.68719 24.3081C4.72691 26.3952 5.4717 28.5416 6.92155 30.7078C7.51738 31.5981 8.21251 32.4191 8.97716 33.1807C9.94042 34.16 10.9235 35.1194 11.8967 36.0888C10.8441 37.622 11.291 38.8881 12.3932 40.0256C13.5353 41.2125 14.578 41.351 16.1271 40.896C16.137 40.896 16.1569 40.896 16.1668 40.9059C17.279 42.5578 18.3019 43.359 19.4042 43.448C19.861 43.8931 20.3178 44.3382 20.7746 44.7834C22.1351 46.0989 24.2205 46.3858 25.859 45.4461C26.574 45.0405 26.6931 44.7042 27.0506 44.1305C29.8312 46.455 31.6882 46.4946 33.8729 43.2403C33.8729 43.2304 33.8928 43.2205 33.9126 43.2304C35.4618 43.6755 36.5045 43.537 37.6465 42.36C38.8083 41.1532 39.2453 39.808 37.9543 38.166C37.9543 38.1561 37.6068 37.7209 37.6266 37.7209C38.5501 37.7505 39.285 37.1669 39.6922 36.6427C40.7646 35.2579 40.7051 33.8039 39.5432 32.3696C40.0497 31.8651 40.5561 31.3607 41.0626 30.8562C41.8173 30.0946 42.5124 29.2736 43.1182 28.3834C44.568 26.2171 45.3128 24.0707 45.3525 21.9836L50.0298 17.3148L37.6465 5ZM9.71202 31.3904C8.29196 29.8967 7.22939 28.2449 6.76266 26.3754C6.66336 25.96 6.58391 25.5346 6.54419 25.0895C6.5144 24.7334 6.49454 24.3674 6.5144 23.9916L1.7577 19.2536L11.9662 9.08516L15.2433 12.3493L15.4618 12.5669V12.5966L17.0308 12.7252L17.1301 12.468C17.7557 12.0427 20.3376 10.6183 23.8034 13.2396L28.3714 17.8094C28.5998 18.0369 28.7289 18.3435 28.7289 18.67C28.7289 18.9964 28.5998 19.303 28.3714 19.5305L28.0735 19.8273C27.5968 20.3021 26.8222 20.3021 26.3357 19.8273L21.6584 15.1486L20.5263 15.9399L21.7875 17.4138L22.3337 17.9578C21.7974 18.4919 21.2612 19.0261 20.7249 19.5602C20.5859 19.6987 20.5164 19.8372 20.4767 19.9855C20.4469 20.0152 20.427 20.0449 20.3972 20.0647C17.2493 23.2002 14.1013 26.3259 10.9633 29.4714C10.3376 30.1045 9.92056 30.7375 9.72195 31.3706L9.71202 31.3904ZM24.8759 44.0811C24.5184 44.4174 24.141 44.635 23.6048 44.5954C22.86 44.5361 22.3436 43.9723 21.9762 43.6162C21.7577 43.3986 21.5392 43.1809 21.3108 42.9633C21.8272 42.6864 22.3734 42.3006 22.9692 41.806C23.3366 42.3797 23.4558 42.716 24.1609 43.1216C24.4786 43.2996 24.8163 43.4381 25.1539 43.5271C25.0943 43.7546 25.005 43.9624 24.8659 44.091L24.8759 44.0811ZM31.6187 43.448C30.9136 44.269 30.1192 44.3382 29.0864 43.3986C28.9275 43.2502 28.7686 43.1018 28.6097 42.9534C28.8381 42.8051 29.0467 42.6369 29.2453 42.449C29.8312 41.8852 30.4072 41.3115 30.993 40.7476C31.0526 40.807 31.1122 40.8762 31.1817 40.9356C32.145 41.8951 32.2741 42.6765 31.6087 43.4579L31.6187 43.448ZM36.5045 40.9059C35.7994 41.8654 34.717 41.8951 33.7438 40.9257C33.2572 40.4509 32.7805 39.9662 32.3039 39.4914C33.0983 38.7199 33.8927 37.9484 34.6872 37.167C35.1341 37.6121 35.5809 38.0572 36.0278 38.5023C36.8918 39.3628 37.0407 40.1838 36.5045 40.896V40.9059ZM38.4806 35.2084C38.1231 36.1086 37.0506 36.5339 36.1966 36.069C36.1172 36.0195 36.0377 35.9701 35.9583 35.9206C36.7229 35.1689 37.4777 34.3973 38.2423 33.6456C38.57 34.0808 38.7388 34.5655 38.4806 35.2183V35.2084ZM43.4955 21.6572C43.5055 22.0331 43.4955 22.399 43.4657 22.7551C43.426 23.1904 43.3466 23.6256 43.2473 24.041C42.7805 25.9204 41.708 27.5821 40.2781 29.0758C38.3416 31.1134 36.3059 33.0521 34.3098 35.0403C32.2244 37.1175 30.139 39.2145 28.0338 41.2719C27.6763 41.628 27.15 42.1918 26.4052 42.2511C25.8689 42.2907 25.4916 42.083 25.1341 41.7368C24.8064 41.4302 24.7071 40.6586 24.8262 40.1739C24.9652 39.6497 25.422 39.1749 25.8292 38.7595C26.7825 37.7901 27.7557 36.8306 28.719 35.8712C29.1857 35.4063 29.6524 34.9315 30.1192 34.4567C30.6058 33.9522 32.0457 32.884 31.2413 32.1322C30.4965 31.4398 29.4439 32.7752 28.997 33.2203C28.5303 33.6951 28.0636 34.16 27.5869 34.6248C25.3724 36.7713 23.1976 38.9573 20.9235 41.0543C19.9007 42.0039 19.0963 41.9247 18.3913 41.1037C17.7259 40.3223 17.855 39.5508 18.8183 38.5814C21.3208 36.0789 23.8332 33.5863 26.3357 31.0837C26.6832 30.7276 26.9911 30.5001 27.0506 29.966C27.1003 29.5703 26.9513 29.2241 26.5442 29.1549C25.859 29.056 25.5511 29.3131 25.1142 29.7583C22.1648 32.696 19.2155 35.6437 16.2562 38.5715C15.283 39.531 14.2006 39.5112 13.4955 38.5517C12.9692 37.8297 13.1082 37.0186 13.9722 36.158C16.9613 33.1609 19.9603 30.1737 22.9692 27.1964C23.4558 26.7117 23.8431 26.1677 23.2473 25.6039C22.6713 25.0697 22.1748 25.5445 21.7378 25.9797C19.434 28.2844 17.1202 30.5891 14.8064 32.884C14.4985 33.1906 14.1708 33.4972 13.7934 33.7049C12.9394 34.1698 11.8769 33.7445 11.5094 32.8543C11.142 31.9344 11.6187 31.3508 12.2046 30.7672C16.0377 26.959 19.8709 23.1508 23.6743 19.3129L25.2433 20.8856C25.7795 21.4198 26.4846 21.6869 27.1897 21.6869C27.8947 21.6869 28.5899 21.4198 29.1261 20.8955L29.424 20.5988C29.9404 20.0844 30.2284 19.4019 30.2284 18.67C30.2284 17.9875 29.9702 17.3445 29.5134 16.84L26.0278 13.3385L25.3426 12.656L26.2761 11.7262C27.716 10.6381 28.997 10.2524 30.0596 10.2029C31.996 10.0248 33.714 11.0338 33.714 11.0338L34.7468 10.0051L38.0238 6.74089L48.2324 16.9093L43.4856 21.6374L43.4955 21.6572Z" fill="#141722"/>
</g>
<defs>
<clipPath id="clip0_1681_43242">
<rect width="50" height="41" fill="white" transform="translate(0 5)"/>
</clipPath>
</defs>
</svg>
