<svg width="24" height="24" viewBox="0 0 24 24" fill="none" xmlns="http://www.w3.org/2000/svg">
<path d="M17.4375 7.5V6.9375C17.4364 5.51902 16.8816 4.157 15.8914 3.14141C14.9011 2.12582 13.5535 1.53689 12.1355 1.5C12.0886 1.5 12.0455 1.5 12 1.5C11.9545 1.5 11.9095 1.5 11.8645 1.5C10.4465 1.53689 9.09893 2.12582 8.10865 3.14141C7.11836 4.157 6.56361 5.51902 6.5625 6.9375V7.5H2.4375C2.38777 7.5 2.34008 7.51975 2.30492 7.55492C2.26975 7.59008 2.25 7.63777 2.25 7.6875V21.75C2.25 21.9489 2.32902 22.1397 2.46967 22.2803C2.61032 22.421 2.80109 22.5 3 22.5H21C21.1989 22.5 21.3897 22.421 21.5303 22.2803C21.671 22.1397 21.75 21.9489 21.75 21.75V7.6875C21.75 7.63777 21.7302 7.59008 21.6951 7.55492C21.6599 7.51975 21.6122 7.5 21.5625 7.5H17.4375ZM15.5625 7.5H8.4375V6.98438C8.4375 5.02312 10.0036 3.39562 11.9648 3.375C12.4355 3.37085 12.9023 3.45991 13.3384 3.63704C13.7744 3.81417 14.1711 4.07587 14.5056 4.40704C14.84 4.73821 15.1056 5.13231 15.287 5.56662C15.4684 6.00092 15.562 6.46683 15.5625 6.9375V7.5Z" fill="#141722"/>
</svg>
