<svg width="24" height="24" viewBox="0 0 24 24" fill="none" xmlns="http://www.w3.org/2000/svg">
<path fill-rule="evenodd" clip-rule="evenodd" d="M5.43847 5.25557C7.68647 3.2631 10.5936 2.25 13.3793 2.25C15.7657 2.25 18.1032 2.99537 19.8654 4.54637L19.866 4.54686L19.8665 4.54735C22.3791 6.76753 22.3794 10.444 19.8673 12.6645C19.867 12.6647 19.8668 12.6649 19.8665 12.6652L18.4476 13.9248C18.4476 13.9249 18.4476 13.9249 18.4475 13.9249C18.2501 14.1003 18.1969 14.269 18.1969 14.3906C18.1969 14.5123 18.2502 14.681 18.4476 14.8564L18.4488 14.8574L18.4499 14.8585C18.5771 14.9723 18.6415 15.0123 18.7016 15.0392C18.7719 15.0707 18.8834 15.105 19.1312 15.146L19.1325 15.1462L19.1337 15.1464C19.1548 15.1499 19.1774 15.1536 19.2015 15.1576C19.5498 15.2143 20.1984 15.3201 20.6712 15.757L20.6725 15.7583L20.6739 15.7596C21.1212 16.1771 21.3526 16.7881 21.3715 17.3735C21.3907 17.9687 21.1917 18.6308 20.6547 19.1052C18.6753 20.8647 15.9284 21.75 13.1824 21.75H13.1L13.0973 21.75C10.3486 21.7301 7.54031 20.8234 5.43886 18.9651C1.18718 15.2073 1.18705 9.01349 5.43847 5.25557ZM13.3793 3.75C10.9433 3.75 8.39436 4.63989 6.43304 6.37843L6.43264 6.37879L6.43223 6.37915C2.85592 9.54001 2.85592 14.6803 6.43223 17.8412L6.43239 17.8413C8.22089 19.4229 10.6613 20.2318 13.1054 20.25H13.1824C15.6297 20.25 18.0011 19.4575 19.6591 17.9833L19.6602 17.9823L19.6613 17.9813C19.7984 17.8603 19.8801 17.6652 19.8723 17.4218C19.8641 17.1692 19.7613 16.9606 19.6517 16.8573C19.5383 16.7536 19.3355 16.7016 18.8857 16.6257C18.5949 16.5777 18.3341 16.5182 18.0882 16.408C17.8324 16.2934 17.6369 16.1439 17.4503 15.9768C16.9782 15.557 16.6969 14.9973 16.6969 14.3906C16.6969 13.7834 16.9787 13.2232 17.4516 12.8033L18.8726 11.5417L18.8733 11.5411C20.7103 9.91792 20.7105 7.29529 18.8739 5.6719C17.4299 4.40134 15.4645 3.75 13.3793 3.75Z" fill="#EFE9E0"/>
<path d="M6.75 11.25C7.57843 11.25 8.25 10.5784 8.25 9.75C8.25 8.92157 7.57843 8.25 6.75 8.25C5.92157 8.25 5.25 8.92157 5.25 9.75C5.25 10.5784 5.92157 11.25 6.75 11.25Z" fill="#EFE9E0"/>
<path d="M7.125 16.0781C7.95343 16.0781 8.625 15.4066 8.625 14.5781C8.625 13.7497 7.95343 13.0781 7.125 13.0781C6.29657 13.0781 5.625 13.7497 5.625 14.5781C5.625 15.4066 6.29657 16.0781 7.125 16.0781Z" fill="#EFE9E0"/>
<path d="M10.5 8.25C11.3284 8.25 12 7.57843 12 6.75C12 5.92157 11.3284 5.25 10.5 5.25C9.67157 5.25 9 5.92157 9 6.75C9 7.57843 9.67157 8.25 10.5 8.25Z" fill="#EFE9E0"/>
<path d="M12 19.4531C13.2426 19.4531 14.25 18.4458 14.25 17.2031C14.25 15.9605 13.2426 14.9531 12 14.9531C10.7574 14.9531 9.75 15.9605 9.75 17.2031C9.75 18.4458 10.7574 19.4531 12 19.4531Z" fill="#EFE9E0"/>
<path d="M15.375 8.25C16.2034 8.25 16.875 7.57843 16.875 6.75C16.875 5.92157 16.2034 5.25 15.375 5.25C14.5466 5.25 13.875 5.92157 13.875 6.75C13.875 7.57843 14.5466 8.25 15.375 8.25Z" fill="#EFE9E0"/>
</svg>
