<svg width="24" height="24" viewBox="0 0 24 24" fill="none" xmlns="http://www.w3.org/2000/svg">
<path fill-rule="evenodd" clip-rule="evenodd" d="M8.88753 8.88809C8.60359 9.17203 8.60351 9.63258 8.88769 9.91676L19.3339 20.3629C19.6181 20.6471 20.0786 20.647 20.3625 20.3631C20.6465 20.0792 20.6466 19.6186 20.3624 19.3344L9.9162 8.88826C9.63202 8.60407 9.17146 8.60415 8.88753 8.88809ZM7.82703 10.9774C6.95722 10.1076 6.95699 8.69731 7.82687 7.82743C8.69675 6.95755 10.107 6.95778 10.9769 7.82759L21.423 18.2738C22.2929 19.1436 22.2931 20.5539 21.4232 21.4238C20.5533 22.2937 19.143 22.2934 18.2732 21.4236L7.82703 10.9774Z" fill="#EFE9E0"/>
<path d="M8.36223 8.36223C8.22448 8.49996 8.11521 8.66347 8.04066 8.84343C7.96611 9.02339 7.92773 9.21627 7.92773 9.41106C7.92773 9.60585 7.96611 9.79873 8.04066 9.97869C8.11521 10.1587 8.22448 10.3222 8.36223 10.4599L10.4655 12.5632L12.5632 10.4655L10.4599 8.36223C10.3222 8.22448 10.1587 8.11521 9.97869 8.04066C9.79873 7.96611 9.60585 7.92773 9.41106 7.92773C9.21627 7.92773 9.02339 7.96611 8.84343 8.04066C8.66347 8.11521 8.49996 8.22448 8.36223 8.36223Z" fill="#EFE9E0"/>
<path fill-rule="evenodd" clip-rule="evenodd" d="M1.5 9C1.5 8.58579 1.83579 8.25 2.25 8.25H4.5C4.91421 8.25 5.25 8.58579 5.25 9C5.25 9.41421 4.91421 9.75 4.5 9.75H2.25C1.83579 9.75 1.5 9.41421 1.5 9Z" fill="#EFE9E0"/>
<path fill-rule="evenodd" clip-rule="evenodd" d="M3.69623 3.69623C3.98913 3.40334 4.464 3.40334 4.75689 3.69623L6.34783 5.28717C6.64072 5.58006 6.64072 6.05494 6.34783 6.34783C6.05494 6.64072 5.58006 6.64072 5.28717 6.34783L3.69623 4.75689C3.40334 4.464 3.40334 3.98913 3.69623 3.69623Z" fill="#EFE9E0"/>
<path fill-rule="evenodd" clip-rule="evenodd" d="M9 1.5C9.41421 1.5 9.75 1.83579 9.75 2.25V4.5C9.75 4.91421 9.41421 5.25 9 5.25C8.58579 5.25 8.25 4.91421 8.25 4.5V2.25C8.25 1.83579 8.58579 1.5 9 1.5Z" fill="#EFE9E0"/>
<path fill-rule="evenodd" clip-rule="evenodd" d="M14.3029 3.69623C14.5958 3.98913 14.5958 4.464 14.3029 4.75689L12.712 6.34783C12.4191 6.64072 11.9442 6.64072 11.6513 6.34783C11.3584 6.05494 11.3584 5.58006 11.6513 5.28717L13.2422 3.69623C13.5351 3.40334 14.01 3.40334 14.3029 3.69623Z" fill="#EFE9E0"/>
<path fill-rule="evenodd" clip-rule="evenodd" d="M6.34783 11.6513C6.64072 11.9442 6.64072 12.4191 6.34783 12.712L4.75689 14.3029C4.464 14.5958 3.98913 14.5958 3.69623 14.3029C3.40334 14.01 3.40334 13.5351 3.69623 13.2422L5.28717 11.6513C5.58006 11.3584 6.05494 11.3584 6.34783 11.6513Z" fill="#EFE9E0"/>
</svg>
