<svg width="24" height="24" viewBox="0 0 24 24" fill="none" xmlns="http://www.w3.org/2000/svg">
<path d="M6.27499 16.9363C5.21562 16.9363 4.35312 16.5519 3.70625 15.7925C3.05468 15.0238 2.6375 13.9035 2.38906 12.2628C2.02343 9.84409 2.38437 7.80503 3.40624 6.52066C4.00625 5.76597 4.79374 5.33003 5.68437 5.25503C6.44374 5.19409 7.58281 5.50347 8.68437 7.31753C9.37343 8.45191 9.89843 9.96128 10.1234 11.4566C10.3953 13.2613 10.1937 14.5925 9.50468 15.5207C8.96093 16.2566 8.12187 16.716 7.01093 16.88C6.75312 16.9175 6.50937 16.9363 6.27499 16.9363ZM5.85312 6.75034C5.83437 6.75034 5.82031 6.75034 5.80625 6.75034C5.33281 6.78784 4.92499 7.02222 4.58281 7.45347C3.83749 8.39097 3.57968 10.0644 3.87499 12.0378C4.33906 15.1128 5.37499 15.605 6.79062 15.3941C7.50312 15.291 7.99531 15.0378 8.29999 14.6253C8.73125 14.0441 8.84375 13.0503 8.64218 11.6769C8.45 10.3878 7.98593 9.04722 7.40468 8.09097C6.88437 7.24722 6.3125 6.75034 5.85312 6.75034Z" fill="#21272A"/>
<path d="M8.11736 23.2516C7.49861 23.2516 6.87048 23.0548 6.3033 22.6704C5.49236 22.122 4.92048 21.2595 4.73298 20.2985C4.60173 19.6095 4.68142 19.0657 4.97673 18.6298C5.45955 17.922 6.33142 17.7579 7.25017 17.5891C7.34861 17.5704 7.44705 17.5516 7.54548 17.5329C7.75642 17.4907 7.97205 17.4391 8.18298 17.3876C8.97048 17.1954 9.78142 16.9938 10.4564 17.4673C10.9064 17.786 11.1595 18.3298 11.2345 19.122C11.3189 20.0407 11.122 20.9548 10.6814 21.7001C10.2033 22.5016 9.48611 23.0313 8.6658 23.1954C8.48298 23.2329 8.30017 23.2516 8.11736 23.2516ZM9.46736 18.6766C9.24236 18.6766 8.80173 18.7845 8.54392 18.8501C8.31423 18.9063 8.07986 18.9673 7.82673 19.0141C7.72361 19.0329 7.62048 19.0516 7.52205 19.0704C6.97361 19.1735 6.35017 19.286 6.21892 19.4782C6.16267 19.5626 6.15798 19.7641 6.20955 20.0173C6.32205 20.5891 6.66423 21.1048 7.14705 21.4329C7.5408 21.7001 7.9908 21.8079 8.37986 21.7329C9.24236 21.5641 9.85642 20.4579 9.74392 19.272C9.70173 18.8032 9.58923 18.7001 9.58923 18.7001C9.56111 18.6813 9.51892 18.6766 9.46736 18.6766Z" fill="#21272A"/>
<path d="M17.732 12.4372C17.4976 12.4372 17.2539 12.4185 17.0007 12.381C15.8898 12.2169 15.0507 11.7622 14.507 11.0216C13.8179 10.0935 13.6164 8.76692 13.8882 6.95755C14.1132 5.46223 14.6336 3.95286 15.3226 2.82317C16.4148 1.0138 17.5586 0.699735 18.3226 0.755985C19.2086 0.82161 19.9961 1.25286 20.5961 2.00286C21.6226 3.28724 21.9836 5.33099 21.6226 7.75911C21.3742 9.39974 20.957 10.52 20.3054 11.2888C19.6492 12.0529 18.7914 12.4372 17.732 12.4372ZM15.3695 7.18255C15.1632 8.55599 15.2757 9.54505 15.7117 10.131C16.0164 10.5435 16.5086 10.7919 17.2211 10.8997C18.6367 11.1107 19.6726 10.6185 20.1367 7.54349C20.4367 5.56067 20.1742 3.88255 19.4242 2.94505C19.0867 2.52317 18.6789 2.29349 18.2148 2.25599C17.7414 2.22317 17.1414 2.72474 16.607 3.6013C16.0257 4.55286 15.5664 5.89349 15.3695 7.18255Z" fill="#21272A"/>
<path d="M15.8881 18.7504C15.7053 18.7504 15.5225 18.7317 15.3397 18.6989C14.5147 18.5395 13.8022 18.0051 13.3241 17.2036C12.8788 16.4583 12.6819 15.5442 12.7709 14.6254C12.8459 13.8286 13.0991 13.2895 13.5491 12.9708C14.2194 12.4926 15.035 12.6942 15.8225 12.8911C16.0334 12.9426 16.2491 12.9942 16.46 13.0364C16.5584 13.0551 16.6616 13.0739 16.7553 13.0926C17.6741 13.2614 18.5413 13.4208 19.0288 14.1333C19.3288 14.5692 19.4084 15.1176 19.2725 15.802C19.085 16.7629 18.5131 17.6254 17.7022 18.1739C17.1397 18.5536 16.5116 18.7504 15.8881 18.7504ZM14.2663 14.7661C14.1538 15.952 14.7678 17.0536 15.6303 17.227C16.0194 17.302 16.4694 17.1942 16.8631 16.927C17.346 16.5989 17.6881 16.0833 17.8006 15.5114C17.8522 15.2583 17.8475 15.0567 17.7913 14.9723C17.66 14.7801 17.0366 14.6629 16.4881 14.5645C16.3897 14.5458 16.2866 14.527 16.1835 14.5083C15.935 14.4614 15.6959 14.4004 15.4663 14.3442C15.1428 14.2645 14.5475 14.1192 14.4209 14.1942C14.4163 14.1942 14.3084 14.2973 14.2663 14.7661Z" fill="#21272A"/>
</svg>
