<svg width="24" height="24" viewBox="0 0 24 24" fill="none" xmlns="http://www.w3.org/2000/svg">
<path fill-rule="evenodd" clip-rule="evenodd" d="M2.1582 2.25L21.8439 2.25C22.1128 2.25042 22.3759 2.32791 22.602 2.47327C22.8282 2.61863 23.0079 2.82579 23.12 3.07018C23.232 3.31457 23.2717 3.58596 23.2342 3.85219C23.1968 4.11838 23.0838 4.36825 22.9087 4.57222C22.9087 4.57225 22.9087 4.57229 22.9086 4.57232L15.0056 13.7803C15.0037 13.7826 15.0017 13.7848 14.9997 13.7871C14.9993 13.7875 14.9991 13.7881 14.999 13.7887V20.6234C14.9996 20.8008 14.9581 20.9759 14.878 21.1343C14.7973 21.2935 14.6798 21.4313 14.5353 21.5361C14.3907 21.6408 14.2232 21.7096 14.0468 21.7366C13.8706 21.7636 13.6905 21.7482 13.5214 21.6918C13.5211 21.6917 13.5209 21.6916 13.5206 21.6915L9.76483 20.4418L9.76144 20.4407C9.5374 20.3649 9.34303 20.2203 9.20611 20.0275C9.07007 19.8359 8.99764 19.6065 8.99897 19.3717V13.7862C8.9989 13.7855 8.99863 13.7849 8.99819 13.7844C8.99704 13.7831 8.9959 13.7817 8.99477 13.7804L1.08932 4.57232C1.08931 4.57232 1.08932 4.57233 1.08932 4.57232C0.91391 4.36802 0.800827 4.11763 0.763545 3.85095C0.726261 3.58426 0.766333 3.31248 0.878997 3.0679C0.991661 2.82331 1.17218 2.61622 1.3991 2.47124C1.62577 2.32641 1.88922 2.24963 2.1582 2.25ZM2.3603 3.75L10.1314 12.8017C10.3661 13.0723 10.4964 13.4178 10.499 13.776C10.499 13.7777 10.499 13.7795 10.499 13.7813V19.1052L13.499 20.1035V13.7813C13.499 13.7801 13.499 13.779 13.499 13.7778C13.499 13.7763 13.499 13.7748 13.499 13.7733C13.5028 13.4152 13.6343 13.0703 13.8697 12.8006L21.6377 3.75H2.3603Z" fill="#141722"/>
</svg>
