<svg width="24" height="24" viewBox="0 0 24 24" fill="none" xmlns="http://www.w3.org/2000/svg">
<path fill-rule="evenodd" clip-rule="evenodd" d="M2.16016 2.25L21.8458 2.25C22.1147 2.25042 22.3778 2.32791 22.604 2.47327C22.8301 2.61863 23.0099 2.82579 23.122 3.07018C23.234 3.31457 23.2736 3.58596 23.2362 3.85219C23.1987 4.11838 23.0858 4.36825 22.9107 4.57222C22.9106 4.57225 22.9106 4.57229 22.9106 4.57232L15.0075 13.7803C15.0056 13.7826 15.0037 13.7848 15.0017 13.7871C15.0013 13.7875 15.001 13.7881 15.0009 13.7887V20.6234C15.0016 20.8008 14.9601 20.9759 14.8799 21.1343C14.7993 21.2935 14.6818 21.4313 14.5372 21.5361C14.3927 21.6408 14.2252 21.7096 14.0487 21.7366C13.8725 21.7636 13.6924 21.7482 13.5233 21.6918C13.5231 21.6917 13.5228 21.6916 13.5226 21.6915L9.76679 20.4418L9.76339 20.4407C9.53935 20.3649 9.34499 20.2203 9.20806 20.0275C9.07203 19.8359 8.99959 19.6065 9.00093 19.3717V13.7862C9.00086 13.7855 9.00058 13.7849 9.00014 13.7844C8.99899 13.7831 8.99785 13.7817 8.99672 13.7804L1.09127 4.57232C1.09126 4.57232 1.09128 4.57233 1.09127 4.57232C0.915863 4.36802 0.80278 4.11763 0.765498 3.85095C0.728215 3.58426 0.768286 3.31248 0.88095 3.0679C0.993614 2.82331 1.17413 2.61622 1.40105 2.47124C1.62772 2.32641 1.89117 2.24963 2.16016 2.25ZM2.36225 3.75L10.1334 12.8017C10.368 13.0723 10.4984 13.4178 10.5009 13.776C10.5009 13.7777 10.5009 13.7795 10.5009 13.7813V19.1052L13.5009 20.1035V13.7813C13.5009 13.7801 13.5009 13.779 13.5009 13.7778C13.5009 13.7763 13.501 13.7748 13.501 13.7733C13.5048 13.4152 13.6363 13.0703 13.8717 12.8006L21.6396 3.75H2.36225Z" fill="#EFE9E0"/>
</svg>
