<svg width="24" height="24" viewBox="0 0 24 24" fill="none" xmlns="http://www.w3.org/2000/svg">
<path fill-rule="evenodd" clip-rule="evenodd" d="M3.1875 3C3.08395 3 3 3.08395 3 3.1875V9.5625C3 9.66605 3.08395 9.75 3.1875 9.75H9.5625C9.66605 9.75 9.75 9.66605 9.75 9.5625V3.1875C9.75 3.08395 9.66605 3 9.5625 3H3.1875ZM1.5 3.1875C1.5 2.25552 2.25552 1.5 3.1875 1.5H9.5625C10.4945 1.5 11.25 2.25552 11.25 3.1875V9.5625C11.25 10.4945 10.4945 11.25 9.5625 11.25H3.1875C2.25552 11.25 1.5 10.4945 1.5 9.5625V3.1875Z" fill="#EFE9E0"/>
<path fill-rule="evenodd" clip-rule="evenodd" d="M14.4375 3C14.3339 3 14.25 3.08395 14.25 3.1875V9.5625C14.25 9.66605 14.3339 9.75 14.4375 9.75H20.8125C20.9161 9.75 21 9.66605 21 9.5625V3.1875C21 3.08395 20.9161 3 20.8125 3H14.4375ZM12.75 3.1875C12.75 2.25552 13.5055 1.5 14.4375 1.5H20.8125C21.7445 1.5 22.5 2.25552 22.5 3.1875V9.5625C22.5 10.4945 21.7445 11.25 20.8125 11.25H14.4375C13.5055 11.25 12.75 10.4945 12.75 9.5625V3.1875Z" fill="#EFE9E0"/>
<path fill-rule="evenodd" clip-rule="evenodd" d="M3.1875 14.25C3.08395 14.25 3 14.3339 3 14.4375V20.8125C3 20.9161 3.08395 21 3.1875 21H9.5625C9.66605 21 9.75 20.9161 9.75 20.8125V14.4375C9.75 14.3339 9.66605 14.25 9.5625 14.25H3.1875ZM1.5 14.4375C1.5 13.5055 2.25552 12.75 3.1875 12.75H9.5625C10.4945 12.75 11.25 13.5055 11.25 14.4375V20.8125C11.25 21.7445 10.4945 22.5 9.5625 22.5H3.1875C2.25552 22.5 1.5 21.7445 1.5 20.8125V14.4375Z" fill="#EFE9E0"/>
<path fill-rule="evenodd" clip-rule="evenodd" d="M14.4375 14.25C14.3339 14.25 14.25 14.3339 14.25 14.4375V20.8125C14.25 20.9161 14.3339 21 14.4375 21H20.8125C20.9161 21 21 20.9161 21 20.8125V14.4375C21 14.3339 20.9161 14.25 20.8125 14.25H14.4375ZM12.75 14.4375C12.75 13.5055 13.5055 12.75 14.4375 12.75H20.8125C21.7445 12.75 22.5 13.5055 22.5 14.4375V20.8125C22.5 21.7445 21.7445 22.5 20.8125 22.5H14.4375C13.5055 22.5 12.75 21.7445 12.75 20.8125V14.4375Z" fill="#EFE9E0"/>
</svg>
