<svg width="32" height="32" viewBox="0 0 32 32" fill="none" xmlns="http://www.w3.org/2000/svg">
<rect width="32" height="32" rx="16" fill="#EFE9E0" fill-opacity="0.6"/>
<path d="M20.6875 8.75C18.7516 8.75 17.0566 9.5825 16 10.9897C14.9434 9.5825 13.2484 8.75 11.3125 8.75C9.77146 8.75174 8.29404 9.36468 7.20436 10.4544C6.11468 11.544 5.50174 13.0215 5.5 14.5625C5.5 21.125 15.2303 26.4369 15.6447 26.6562C15.7539 26.715 15.876 26.7458 16 26.7458C16.124 26.7458 16.2461 26.715 16.3553 26.6562C16.7697 26.4369 26.5 21.125 26.5 14.5625C26.4983 13.0215 25.8853 11.544 24.7956 10.4544C23.706 9.36468 22.2285 8.75174 20.6875 8.75ZM16 25.1375C14.2881 24.14 7 19.5959 7 14.5625C7.00149 13.4192 7.45632 12.3232 8.26475 11.5147C9.07317 10.7063 10.1692 10.2515 11.3125 10.25C13.1359 10.25 14.6669 11.2213 15.3062 12.7812C15.3628 12.9188 15.4589 13.0365 15.5824 13.1193C15.7059 13.2021 15.8513 13.2463 16 13.2463C16.1487 13.2463 16.2941 13.2021 16.4176 13.1193C16.5411 13.0365 16.6372 12.9188 16.6937 12.7812C17.3331 11.2184 18.8641 10.25 20.6875 10.25C21.8308 10.2515 22.9268 10.7063 23.7353 11.5147C24.5437 12.3232 24.9985 13.4192 25 14.5625C25 19.5884 17.71 24.1391 16 25.1375Z" fill="#141722"/>
</svg>
