<svg width="20" height="20" viewBox="0 0 20 20" fill="none" xmlns="http://www.w3.org/2000/svg">
<g clip-path="url(#clip0_1388_30863)">
<path fill-rule="evenodd" clip-rule="evenodd" d="M7.40725 6.40544C7.17064 6.64205 7.17057 7.02585 7.40739 7.26267L16.1125 15.9678C16.3494 16.2046 16.7332 16.2046 16.9698 15.968C17.2064 15.7313 17.2064 15.3475 16.9696 15.1107L8.26448 6.40558C8.02766 6.16876 7.64386 6.16883 7.40725 6.40544ZM6.5235 8.14655C5.79866 7.42171 5.79847 6.24646 6.52337 5.52156C7.24827 4.79666 8.42352 4.79685 9.14836 5.52169L17.8535 14.2268C18.5784 14.9517 18.5785 16.1269 17.8536 16.8518C17.1287 17.5767 15.9535 17.5765 15.2287 16.8517L6.5235 8.14655Z" fill="#EFE9E0"/>
<path d="M6.96755 5.96755C6.85276 6.08232 6.7617 6.21858 6.69957 6.36855C6.63744 6.51851 6.60547 6.67925 6.60547 6.84157C6.60547 7.0039 6.63744 7.16463 6.69957 7.3146C6.7617 7.46457 6.85276 7.60083 6.96755 7.7156L8.72028 9.46833L10.4683 7.72028L8.7156 5.96755C8.60083 5.85276 8.46457 5.7617 8.3146 5.69957C8.16463 5.63744 8.0039 5.60547 7.84157 5.60547C7.67925 5.60547 7.51851 5.63744 7.36855 5.69957C7.21858 5.7617 7.08232 5.85276 6.96755 5.96755V5.96755Z" fill="#EFE9E0"/>
<path fill-rule="evenodd" clip-rule="evenodd" d="M1.25 6.5C1.25 6.15482 1.52982 5.875 1.875 5.875H3.75C4.09518 5.875 4.375 6.15482 4.375 6.5C4.375 6.84518 4.09518 7.125 3.75 7.125H1.875C1.52982 7.125 1.25 6.84518 1.25 6.5Z" fill="#EFE9E0"/>
<path fill-rule="evenodd" clip-rule="evenodd" d="M3.0815 2.0815C3.32557 1.83742 3.7213 1.83742 3.96538 2.0815L5.29116 3.40728C5.53524 3.65135 5.53524 4.04708 5.29116 4.29116C5.04708 4.53524 4.65135 4.53524 4.40728 4.29116L3.0815 2.96538C2.83742 2.7213 2.83742 2.32557 3.0815 2.0815Z" fill="#EFE9E0"/>
<path fill-rule="evenodd" clip-rule="evenodd" d="M7.5 0.25C7.84518 0.25 8.125 0.529822 8.125 0.875V2.75C8.125 3.09518 7.84518 3.375 7.5 3.375C7.15482 3.375 6.875 3.09518 6.875 2.75V0.875C6.875 0.529822 7.15482 0.25 7.5 0.25Z" fill="#EFE9E0"/>
<path fill-rule="evenodd" clip-rule="evenodd" d="M11.9201 2.0815C12.1641 2.32557 12.1641 2.7213 11.9201 2.96538L10.5943 4.29116C10.3502 4.53524 9.95448 4.53524 9.7104 4.29116C9.46632 4.04708 9.46632 3.65135 9.7104 3.40728L11.0362 2.0815C11.2803 1.83742 11.676 1.83742 11.9201 2.0815Z" fill="#EFE9E0"/>
<path fill-rule="evenodd" clip-rule="evenodd" d="M5.29116 8.7104C5.53524 8.95448 5.53524 9.35021 5.29116 9.59429L3.96538 10.9201C3.7213 11.1641 3.32557 11.1641 3.0815 10.9201C2.83742 10.676 2.83742 10.2803 3.0815 10.0362L4.40728 8.7104C4.65135 8.46632 5.04708 8.46632 5.29116 8.7104Z" fill="#EFE9E0"/>
</g>
<defs>
<clipPath id="clip0_1388_30863">
<rect width="20" height="20" fill="white"/>
</clipPath>
</defs>
</svg>
