<svg width="20" height="20" viewBox="0 0 20 20" fill="none" xmlns="http://www.w3.org/2000/svg">
<path fill-rule="evenodd" clip-rule="evenodd" d="M3.75 3.75C3.05964 3.75 2.5 4.30964 2.5 5V15C2.5 15.6904 3.05964 16.25 3.75 16.25H16.25C16.9404 16.25 17.5 15.6904 17.5 15V5C17.5 4.30964 16.9404 3.75 16.25 3.75H3.75ZM1.25 5C1.25 3.61929 2.36929 2.5 3.75 2.5H16.25C17.6307 2.5 18.75 3.61929 18.75 5V15C18.75 16.3807 17.6307 17.5 16.25 17.5H3.75C2.36929 17.5 1.25 16.3807 1.25 15V5Z" fill="#EFE9E0"/>
<path fill-rule="evenodd" clip-rule="evenodd" d="M13.125 6.25C12.7798 6.25 12.5 6.52982 12.5 6.875C12.5 7.22018 12.7798 7.5 13.125 7.5C13.4702 7.5 13.75 7.22018 13.75 6.875C13.75 6.52982 13.4702 6.25 13.125 6.25ZM11.25 6.875C11.25 5.83947 12.0895 5 13.125 5C14.1605 5 15 5.83947 15 6.875C15 7.91053 14.1605 8.75 13.125 8.75C12.0895 8.75 11.25 7.91053 11.25 6.875Z" fill="#EFE9E0"/>
<path fill-rule="evenodd" clip-rule="evenodd" d="M6.20498 9.06465C6.56243 8.74731 7.02758 8.57846 7.50535 8.59262C7.98296 8.60677 8.43714 8.80273 8.77513 9.14046C8.77515 9.14048 8.77517 9.14051 8.7752 9.14053C8.7753 9.14063 8.77539 9.14073 8.77549 9.14082L12.3165 12.6752C12.5608 12.9191 12.5612 13.3148 12.3174 13.5591C12.0735 13.8034 11.6778 13.8038 11.4335 13.5599L7.89171 10.0248C7.77903 9.91216 7.62759 9.84679 7.46833 9.84207C7.3091 9.83735 7.15409 9.89361 7.03495 9.99935C7.03492 9.99937 7.0349 9.99939 7.03487 9.99942L2.29029 14.2179C2.03233 14.4472 1.63728 14.424 1.40793 14.1661C1.17857 13.9081 1.20176 13.5131 1.45972 13.2837L6.20498 9.06465Z" fill="#EFE9E0"/>
<path fill-rule="evenodd" clip-rule="evenodd" d="M14.8521 12.4587C14.7322 12.3591 14.5794 12.3079 14.4238 12.3151C14.268 12.3224 14.1205 12.3876 14.0104 12.498L9.19194 17.3164C8.94786 17.5604 8.55214 17.5604 8.30806 17.3164C8.06398 17.0723 8.06398 16.6766 8.30806 16.4325L13.1256 11.615C13.1257 11.6149 13.1258 11.6148 13.1258 11.6147C13.4563 11.2837 13.8986 11.0881 14.3658 11.0665C14.8332 11.0448 15.2918 11.1986 15.6516 11.4978L18.5253 13.8944C18.7904 14.1155 18.8261 14.5096 18.605 14.7747C18.3839 15.0398 17.9898 15.0755 17.7247 14.8544L14.8523 12.4589C14.8523 12.4588 14.8522 12.4587 14.8521 12.4587Z" fill="#EFE9E0"/>
</svg>
