<svg width="31" height="29" viewBox="0 0 31 29" fill="none" xmlns="http://www.w3.org/2000/svg">
<g filter="url(#filter0_d_958_36896)">
<path fill-rule="evenodd" clip-rule="evenodd" d="M5.26884 4.51884C5.76113 4.02656 6.42881 3.75 7.125 3.75H18C18.4142 3.75 18.75 4.08579 18.75 4.5C18.75 4.91421 18.4142 5.25 18 5.25H7.125C6.82663 5.25 6.54048 5.36853 6.3295 5.5795C6.11853 5.79048 6 6.07663 6 6.375V17.625C6 17.9234 6.11853 18.2095 6.3295 18.4205C6.54048 18.6315 6.82663 18.75 7.125 18.75H22.8155C23.1138 18.75 23.4 18.6315 23.611 18.4205C23.8219 18.2095 23.9405 17.9234 23.9405 17.625V11.2031C23.9405 10.7889 24.2763 10.4531 24.6905 10.4531C25.1047 10.4531 25.4405 10.7889 25.4405 11.2031V17.625C25.4405 18.3212 25.1639 18.9889 24.6716 19.4812C24.1793 19.9734 23.5117 20.25 22.8155 20.25H7.125C6.42881 20.25 5.76113 19.9734 5.26884 19.4812C4.77656 18.9889 4.5 18.3212 4.5 17.625V6.375C4.5 5.67881 4.77656 5.01113 5.26884 4.51884Z" fill="#141722"/>
<path fill-rule="evenodd" clip-rule="evenodd" d="M7.65802 7.03958C7.91232 6.71262 8.38353 6.65372 8.71049 6.90802L15.0069 11.8052L18.6263 9.07314C18.9569 8.8236 19.4272 8.8893 19.6768 9.21991C19.9263 9.55051 19.8606 10.0208 19.53 10.2704L15.4519 13.3486C15.1813 13.5529 14.8072 13.5502 14.5396 13.342L7.78958 8.09205C7.46262 7.83775 7.40372 7.36654 7.65802 7.03958Z" fill="#141722"/>
<path d="M23.2477 8.24922C24.489 8.24922 25.4953 7.24291 25.4953 6.00156C25.4953 4.76022 24.489 3.75391 23.2477 3.75391C22.0063 3.75391 21 4.76022 21 6.00156C21 7.24291 22.0063 8.24922 23.2477 8.24922Z" fill="#141722"/>
<path d="M23.2496 8.99922C22.6567 8.99922 22.0772 8.82341 21.5842 8.49402C21.0912 8.16464 20.707 7.69647 20.4801 7.14872C20.2533 6.60097 20.1939 5.99824 20.3096 5.41675C20.4252 4.83526 20.7107 4.30113 21.1299 3.8819C21.5492 3.46267 22.0833 3.17717 22.6648 3.06151C23.2463 2.94584 23.849 3.00521 24.3968 3.23209C24.9445 3.45898 25.4127 3.84319 25.7421 4.33616C26.0715 4.82912 26.2473 5.40868 26.2473 6.00156C26.2466 6.7964 25.9306 7.55851 25.3686 8.12054C24.8066 8.68258 24.0444 8.9986 23.2496 8.99922ZM23.2496 4.50391C22.9528 4.50344 22.6626 4.59102 22.4156 4.75556C22.1686 4.9201 21.976 5.15421 21.8621 5.42826C21.7482 5.7023 21.7182 6.00398 21.7758 6.2951C21.8334 6.58623 21.9761 6.85372 22.1858 7.06374C22.3955 7.27375 22.6627 7.41684 22.9538 7.47491C23.2448 7.53298 23.5465 7.50341 23.8207 7.38995C24.095 7.27649 24.3294 7.08423 24.4943 6.83751C24.6592 6.59078 24.7473 6.30068 24.7473 6.00391C24.7473 5.60649 24.5896 5.22531 24.3088 4.94408C24.028 4.66284 23.647 4.50453 23.2496 4.50391Z" fill="#141722"/>
</g>
<defs>
<filter id="filter0_d_958_36896" x="-1" y="0" width="32" height="32" filterUnits="userSpaceOnUse" color-interpolation-filters="sRGB">
<feFlood flood-opacity="0" result="BackgroundImageFix"/>
<feColorMatrix in="SourceAlpha" type="matrix" values="0 0 0 0 0 0 0 0 0 0 0 0 0 0 0 0 0 0 127 0" result="hardAlpha"/>
<feOffset dy="4"/>
<feGaussianBlur stdDeviation="2"/>
<feComposite in2="hardAlpha" operator="out"/>
<feColorMatrix type="matrix" values="0 0 0 0 0 0 0 0 0 0 0 0 0 0 0 0 0 0 0.25 0"/>
<feBlend mode="normal" in2="BackgroundImageFix" result="effect1_dropShadow_958_36896"/>
<feBlend mode="normal" in="SourceGraphic" in2="effect1_dropShadow_958_36896" result="shape"/>
</filter>
</defs>
</svg>
