<svg width="24" height="24" viewBox="0 0 24 24" fill="none" xmlns="http://www.w3.org/2000/svg">
<path d="M21.6484 19.8756C20.2206 17.4072 18.0203 15.6372 15.4525 14.7981C16.7226 14.042 17.7094 12.8898 18.2614 11.5185C18.8134 10.1473 18.8999 8.63272 18.5078 7.20749C18.1157 5.78226 17.2666 4.52515 16.0909 3.62921C14.9151 2.73327 13.4778 2.24805 11.9996 2.24805C10.5215 2.24805 9.08414 2.73327 7.90842 3.62921C6.73269 4.52515 5.88358 5.78226 5.49146 7.20749C5.09935 8.63272 5.18592 10.1473 5.73788 11.5185C6.28984 12.8898 7.27668 14.042 8.54683 14.7981C5.97902 15.6362 3.77871 17.4062 2.35089 19.8756C2.29853 19.961 2.2638 20.056 2.24875 20.155C2.2337 20.254 2.23863 20.355 2.26326 20.4521C2.28789 20.5492 2.33171 20.6404 2.39214 20.7202C2.45257 20.8001 2.52838 20.867 2.6151 20.9171C2.70183 20.9672 2.79771 20.9995 2.89709 21.0119C2.99647 21.0243 3.09733 21.0167 3.19373 20.9896C3.29012 20.9624 3.3801 20.9162 3.45835 20.8537C3.5366 20.7912 3.60154 20.7136 3.64933 20.6256C5.41558 17.5731 8.53746 15.7506 11.9996 15.7506C15.4618 15.7506 18.5837 17.5731 20.35 20.6256C20.3977 20.7136 20.4627 20.7912 20.5409 20.8537C20.6192 20.9162 20.7092 20.9624 20.8056 20.9896C20.902 21.0167 21.0028 21.0243 21.1022 21.0119C21.2016 20.9995 21.2975 20.9672 21.3842 20.9171C21.4709 20.867 21.5467 20.8001 21.6072 20.7202C21.6676 20.6404 21.7114 20.5492 21.736 20.4521C21.7607 20.355 21.7656 20.254 21.7505 20.155C21.7355 20.056 21.7008 19.961 21.6484 19.8756ZM6.74964 9.0006C6.74964 7.96225 7.05755 6.94721 7.63443 6.08385C8.21131 5.2205 9.03124 4.54759 9.99056 4.15023C10.9499 3.75287 12.0055 3.6489 13.0239 3.85147C14.0423 4.05405 14.9777 4.55406 15.712 5.28829C16.4462 6.02251 16.9462 6.95797 17.1488 7.97637C17.3513 8.99477 17.2474 10.0504 16.85 11.0097C16.4527 11.969 15.7797 12.7889 14.9164 13.3658C14.053 13.9427 13.038 14.2506 11.9996 14.2506C10.6077 14.2491 9.27322 13.6955 8.28898 12.7113C7.30473 11.727 6.75113 10.3925 6.74964 9.0006Z" fill="#141722"/>
</svg>
