<svg width="40" height="36" viewBox="0 0 40 36" fill="none" xmlns="http://www.w3.org/2000/svg">
<path d="M36 14V10C36 9.46957 35.7893 8.96086 35.4142 8.58579C35.0391 8.21071 34.5304 8 34 8H32V10C32 10.5304 31.7893 11.0391 31.4142 11.4142C31.0391 11.7893 30.5304 12 30 12C29.4696 12 28.9609 11.7893 28.5858 11.4142C28.2107 11.0391 28 10.5304 28 10V8H12V10C12 10.5304 11.7893 11.0391 11.4142 11.4142C11.0391 11.7893 10.5304 12 10 12C9.46957 12 8.96086 11.7893 8.58579 11.4142C8.21071 11.0391 8 10.5304 8 10V8H6C5.46957 8 4.96086 8.21071 4.58579 8.58579C4.21071 8.96086 4 9.46957 4 10V14H36ZM36 18H4V30C4 30.5304 4.21071 31.0391 4.58579 31.4142C4.96086 31.7893 5.46957 32 6 32H34C34.5304 32 35.0391 31.7893 35.4142 31.4142C35.7893 31.0391 36 30.5304 36 30V18ZM32 4H34C35.5913 4 37.1174 4.63214 38.2426 5.75736C39.3679 6.88258 40 8.4087 40 10V30C40 31.5913 39.3679 33.1174 38.2426 34.2426C37.1174 35.3679 35.5913 36 34 36H6C4.4087 36 2.88258 35.3679 1.75736 34.2426C0.632141 33.1174 0 31.5913 0 30L0 10C0 8.4087 0.632141 6.88258 1.75736 5.75736C2.88258 4.63214 4.4087 4 6 4H8V2C8 1.46957 8.21071 0.960859 8.58579 0.585786C8.96086 0.210714 9.46957 0 10 0C10.5304 0 11.0391 0.210714 11.4142 0.585786C11.7893 0.960859 12 1.46957 12 2V4H28V2C28 1.46957 28.2107 0.960859 28.5858 0.585786C28.9609 0.210714 29.4696 0 30 0C30.5304 0 31.0391 0.210714 31.4142 0.585786C31.7893 0.960859 32 1.46957 32 2V4Z" fill="#2C2E37"/>
</svg>
