<svg width="20" height="20" viewBox="0 0 20 20" fill="none" xmlns="http://www.w3.org/2000/svg">
<path fill-rule="evenodd" clip-rule="evenodd" d="M14.4755 4C14.6431 3.99991 14.8039 4.06644 14.9224 4.18494L15.8151 5.07763C15.9336 5.19613 16.0001 5.35688 16 5.52447C15.9999 5.69206 15.9332 5.85274 15.8146 5.97111L4.85293 16.9079C4.8064 16.9543 4.7529 16.9932 4.69437 17.0231L2.91887 17.9308C2.67503 18.0554 2.37863 18.0087 2.18498 17.8151C1.99133 17.6214 1.94457 17.325 2.0692 17.0812L2.97688 15.3053C3.00681 15.2467 3.0457 15.1932 3.09214 15.1467L14.0289 4.18544C14.1473 4.06681 14.3079 4.00009 14.4755 4Z" fill="#141722" fill-opacity="0.3"/>
<path fill-rule="evenodd" clip-rule="evenodd" d="M16.0001 2.34291C16.2198 2.12334 16.5178 2 16.8284 2C17.1391 2 17.437 2.12334 17.6568 2.34291L17.2426 2.75728L17.657 2.34318C17.8766 2.56289 18 2.8608 18 3.17142C18 3.48204 17.8766 3.77995 17.657 3.99967L16.8287 4.82832C16.7188 4.93824 16.5697 5 16.4143 5C16.2588 5 16.1098 4.93824 15.9999 4.82832L15.1715 3.99971C14.9428 3.77091 14.9428 3.40004 15.1716 3.17129L16 2.34305L16.4143 2.7573L16.0001 2.34291Z" fill="#141722" fill-opacity="0.3"/>
</svg>
