<svg width="50" height="50" viewBox="0 0 50 50" fill="none" xmlns="http://www.w3.org/2000/svg">
<g clip-path="url(#clip0_1681_43222)">
<path d="M23.8983 22.6291C24.1773 22.5188 24.3567 22.2381 24.3567 21.9373V3.74185C24.3567 3.33083 24.0278 3 23.6193 3C18.7068 3 14.0535 4.89474 10.5261 8.33333C10.3866 8.47368 10.3068 8.66416 10.2969 8.85464C10.2969 9.05514 10.3666 9.24561 10.5061 9.38596L23.0812 22.4486C23.2207 22.599 23.42 22.6792 23.6093 22.6792C23.699 22.6792 23.7987 22.6591 23.8883 22.6291H23.8983ZM22.8819 20.1028L12.1004 8.90476C15.0898 6.21804 18.8762 4.67419 22.872 4.50376V20.0927L22.8819 20.1028Z" fill="#141722"/>
<path d="M23.5601 25.8261C23.5801 25.6056 23.5103 25.395 23.3509 25.2346L10.7758 12.172C10.6363 12.0316 10.4569 11.9514 10.2577 11.9414C10.0584 11.9414 9.86904 12.0116 9.72954 12.1519C6.03274 15.761 4 20.583 4 25.7559C4 29.7058 5.19573 33.4853 7.46762 36.7033C7.61708 36.9038 7.84626 37.0141 8.07544 37.0141C8.22491 37.0141 8.37438 36.964 8.50391 36.8737L23.2512 26.3574C23.4306 26.2371 23.5402 26.0366 23.5601 25.8161V25.8261ZM8.26477 35.2296C6.44128 32.4026 5.4847 29.1444 5.4847 25.7559C5.4847 21.2447 7.16868 17.0141 10.2377 13.7559L21.6868 25.6457L8.2548 35.2196L8.26477 35.2296Z" fill="#141722"/>
<path d="M45.8336 25.1662C45.7937 24.8554 45.7439 24.5547 45.6941 24.2439C45.5745 23.5722 45.4151 22.9206 45.2357 22.3091C45.156 22.0384 45.0763 21.7677 44.9766 21.497C44.7773 20.9156 44.5581 20.3441 44.309 19.7827C44.1994 19.5421 44.0898 19.3015 43.9702 19.0609C43.7111 18.5396 43.4222 18.0284 43.1133 17.5271C42.9738 17.3066 42.8442 17.096 42.6948 16.8855C42.346 16.3642 41.9574 15.8529 41.5588 15.3717C41.3994 15.1812 41.24 14.9908 41.0706 14.8003C40.7019 14.3893 40.3033 13.9883 39.8948 13.5973C39.7154 13.4269 39.5261 13.2564 39.3368 13.096C38.9083 12.7251 38.4599 12.3742 38.0115 12.0434C37.8022 11.893 37.593 11.7426 37.3837 11.6123C36.8855 11.2815 36.3873 10.9807 35.899 10.7101C35.6699 10.5898 35.4407 10.4594 35.2015 10.3492C34.6037 10.0484 33.9759 9.78776 33.3482 9.55718C33.0891 9.45693 32.82 9.3667 32.561 9.2865C31.9432 9.09603 31.3154 8.9256 30.6677 8.79527C30.3688 8.73512 30.0699 8.685 29.7709 8.63487C29.0734 8.5246 28.3361 8.45442 27.5987 8.42435C27.3396 8.41432 27.0905 8.4043 26.8314 8.4043C26.2236 8.4043 25.7353 8.89552 25.7353 9.50705V27.1311L11.4563 37.3166C11.2172 37.487 11.0578 37.7477 11.0079 38.0384C10.9581 38.3291 11.0279 38.6198 11.1973 38.8604L11.267 38.9607C11.5759 39.3918 11.9247 39.8329 12.3232 40.294C12.4827 40.4845 12.6521 40.675 12.8215 40.8554C13.1901 41.2564 13.5987 41.6474 14.0272 42.0384C14.2165 42.2088 14.4058 42.3692 14.5951 42.5296C15.1232 42.9707 15.6115 43.3416 16.0998 43.6725C16.2791 43.7928 16.4585 43.903 16.6378 44.0133L16.7474 44.0835C17.2457 44.3943 17.7538 44.685 18.272 44.9457C18.5111 45.066 18.7403 45.1863 18.9795 45.2865C19.5076 45.5271 20.0656 45.7477 20.6934 45.9582C20.9624 46.0484 21.2215 46.1386 21.4905 46.2088C22.1581 46.4093 22.7859 46.5597 23.4136 46.67C23.7126 46.7301 24.0215 46.7702 24.3304 46.8103C25.1574 46.9206 25.9944 46.9807 26.7816 46.9807C26.7916 46.9807 26.8414 46.9807 26.8514 46.9807C27.2001 46.9807 27.5389 46.9707 27.8777 46.9507C28.7845 46.9005 29.7012 46.7903 30.598 46.6098C31.0464 46.5196 31.5047 46.4093 31.993 46.269C33.388 45.878 34.7332 45.3366 35.9788 44.6449C37.2343 43.9532 38.43 43.1211 39.5161 42.1487C40.124 41.6073 40.7019 41.0259 41.23 40.4244C42.1966 39.3216 43.0336 38.1286 43.7111 36.8655C44.3887 35.6123 44.9368 34.2589 45.3254 32.8554C45.4649 32.3642 45.5745 31.903 45.6642 31.4519C45.8435 30.5497 45.9531 29.6274 46.003 28.7151C46.0229 28.3742 46.0329 28.0233 46.0329 27.6825V27.6324C46.0329 26.8304 45.9731 25.9883 45.8635 25.1462L45.8336 25.1662ZM44.4983 28.665C44.4485 29.5071 44.3489 30.3592 44.1795 31.1913C44.0998 31.6023 44.0001 32.0233 43.8706 32.4845C43.5119 33.7777 43.0136 35.0309 42.3859 36.1837C41.7581 37.3467 40.9909 38.4494 40.0941 39.472C39.6058 40.0233 39.0777 40.5647 38.5097 41.066C37.5033 41.9582 36.4072 42.7301 35.2514 43.3717C34.0955 44.0033 32.8599 44.5046 31.5745 44.8655C31.1261 44.9958 30.7076 45.096 30.2891 45.1762C29.462 45.3366 28.6151 45.4469 27.778 45.497C27.4692 45.5171 27.1503 45.5271 26.8314 45.5271C26.8215 45.5271 26.7916 45.5271 26.7816 45.5271C26.0343 45.5271 25.267 45.477 24.4998 45.3667C24.2208 45.3266 23.9318 45.2865 23.6528 45.2364C23.0748 45.1261 22.4969 44.9858 21.8791 44.8053C21.63 44.7351 21.3809 44.6549 21.1418 44.5647C20.5638 44.3642 20.0457 44.1637 19.5674 43.9431C19.3482 43.8429 19.1289 43.7326 18.9097 43.6223C18.4414 43.3817 17.9631 43.1111 17.5047 42.8304L17.3951 42.7602C17.2257 42.6599 17.0663 42.5597 16.9069 42.4494C16.4684 42.1487 16.0101 41.7978 15.5218 41.3968C15.3425 41.2464 15.1731 41.096 14.9937 40.9356C14.5951 40.5747 14.2264 40.2138 13.8877 39.8429C13.7282 39.6725 13.5788 39.502 13.4293 39.3316C13.1304 38.9807 12.8613 38.6499 12.6222 38.3191L26.9012 28.1336C27.1005 27.9933 27.2101 27.7627 27.2101 27.5221V9.90806C27.3197 9.90806 27.4293 9.90806 27.5389 9.91808C28.2264 9.94816 28.8941 10.0083 29.5417 10.1086C29.8208 10.1487 30.0998 10.1988 30.3688 10.2589C30.9567 10.3792 31.5446 10.5296 32.1126 10.7101C32.3517 10.7903 32.6008 10.8705 32.84 10.9607C33.4179 11.1712 33.9958 11.4118 34.5539 11.6925C34.7731 11.8028 34.9823 11.9131 35.2015 12.0233C35.6499 12.2639 36.1183 12.5446 36.5766 12.8554C36.7659 12.9858 36.9553 13.1161 37.1546 13.2564C37.5731 13.5572 37.9816 13.888 38.3802 14.2289C38.5496 14.3792 38.7289 14.5296 38.8983 14.69C39.277 15.0509 39.6457 15.4218 39.9845 15.8028C40.1339 15.9732 40.2934 16.1537 40.4329 16.3341C40.8015 16.7853 41.1603 17.2564 41.4791 17.7376C41.6087 17.9281 41.7382 18.1286 41.8578 18.3291C42.1467 18.7903 42.4058 19.2715 42.645 19.7426C42.7546 19.9632 42.8542 20.1837 42.9638 20.4043C43.193 20.9156 43.4022 21.4569 43.5816 21.9883C43.6613 22.2389 43.741 22.4795 43.8208 22.7401C43.9901 23.3116 44.1297 23.903 44.2393 24.5246C44.2891 24.8053 44.3289 25.086 44.3688 25.3767C44.4684 26.1587 44.5282 26.9306 44.5282 27.6725V27.7226C44.5282 28.0434 44.5282 28.3642 44.4983 28.675V28.665Z" fill="#141722"/>
</g>
<defs>
<clipPath id="clip0_1681_43222">
<rect width="42" height="44" fill="white" transform="translate(4 3)"/>
</clipPath>
</defs>
</svg>
