<svg width="50" height="50" viewBox="0 0 50 50" fill="none" xmlns="http://www.w3.org/2000/svg">
<g clip-path="url(#clip0_1681_43229)">
<path d="M10.9023 37.7076C11.003 38.3378 11.5364 38.7879 12.1706 38.7879C12.231 38.7879 12.2813 38.7879 12.3417 38.7779C19.8706 37.7977 25.4871 35.7571 29.5234 32.5462C31.5163 30.9658 33.1368 29.1053 34.4856 26.8747C35.5827 25.0742 36.4786 23.0337 37.2335 20.663L39.6391 21.0031C40.1122 21.0731 40.5752 20.8731 40.857 20.493C41.1389 20.1129 41.1892 19.6127 40.9778 19.1826L36.9214 10.8404C36.7503 10.4803 36.4081 10.2202 36.0256 10.1402C35.6431 10.0602 35.2305 10.1602 34.9285 10.4203L27.8324 16.5019C27.47 16.822 27.309 17.3221 27.4298 17.7922C27.5505 18.2624 27.923 18.6225 28.4061 18.7225L30.54 19.1726C29.9461 22.1834 28.7383 24.9042 26.9365 27.2648C24.0578 31.0358 20.1323 33.2864 17.3442 34.5068C15.7539 35.207 14.3648 35.6471 13.469 35.8971C12.9758 36.0372 12.5732 36.1272 12.3316 36.1872C12.2008 36.2172 12.1001 36.2372 12.0397 36.2472H11.9793C11.2647 36.3873 10.8117 37.0274 10.9124 37.7176L10.9023 37.7076ZM15.7438 36.7174C16.4081 36.4873 17.1429 36.1972 17.9381 35.8571C20.8872 34.5668 25.0442 32.1861 28.1243 28.155C30.2179 25.4143 31.5666 22.2334 32.1404 18.7025C32.2008 18.3124 31.9491 17.9423 31.5566 17.8623L29.1409 17.3521L35.7035 11.7306L39.4579 19.4727L36.8208 19.0926C36.8208 19.0926 36.7503 19.0926 36.7101 19.0926C36.388 19.0926 36.086 19.3027 35.9954 19.6227C35.2405 22.1334 34.3346 24.264 33.2073 26.1045C31.9491 28.1851 30.4393 29.9155 28.5873 31.3859C25.4368 33.8966 21.2093 35.6571 15.7539 36.7174H15.7438Z" fill="#141722"/>
<path d="M45 42.9697C45 42.3996 44.537 41.9394 43.9633 41.9394H7.07348V8.03028C7.07348 7.46012 6.61047 7 6.03674 7C5.46301 7 5 7.46012 5 8.03028V42.9697C5 43.2398 5.11072 43.5099 5.30196 43.6999C5.49321 43.89 5.76497 44 6.03674 44H43.9633C44.537 44 45 43.5399 45 42.9697Z" fill="#141722"/>
</g>
<defs>
<clipPath id="clip0_1681_43229">
<rect width="40" height="37" fill="white" transform="translate(5 7)"/>
</clipPath>
</defs>
</svg>
