<svg width="50" height="50" viewBox="0 0 50 50" fill="none" xmlns="http://www.w3.org/2000/svg">
<g clip-path="url(#clip0_1753_39503)">
<path d="M7.15248 42.8854C7.15248 43.5102 7.67105 44.0101 8.29526 44.0005L42.8765 43.5775C43.5007 43.5775 44.0001 43.0584 43.9905 42.4336C43.9905 41.8088 43.4719 41.3089 42.8477 41.3185L8.26646 41.7415C7.64224 41.7415 7.14288 42.2606 7.15248 42.8854Z" fill="#141722"/>
<path d="M21.7984 39.1929H21.8272L27.0322 39.1064C28.1269 39.0871 28.972 38.0297 28.9528 36.6935L28.78 16.9005C28.78 16.1795 28.5111 15.5066 28.0501 15.0644C27.7044 14.7183 27.2531 14.5357 26.8017 14.5453L21.5967 14.6318C20.502 14.651 19.6569 15.7084 19.6761 17.0446L19.849 36.8377C19.849 37.5587 20.1179 38.2316 20.5788 38.6738C20.9245 39.0102 21.3567 39.1929 21.808 39.1929H21.7984ZM21.6256 16.2852L26.8401 16.1987C26.8977 16.1987 27.1378 16.4486 27.1378 16.9197L27.3107 36.7128C27.3107 37.203 27.0706 37.4529 27.013 37.4529L21.808 37.5395C21.7504 37.5395 21.5103 37.2991 21.5103 36.8185L21.3375 17.0254C21.3375 16.5352 21.5775 16.2852 21.6352 16.2852H21.6256Z" fill="#141722"/>
<path d="M35.4896 39.1262H35.5184L40.7233 39.0013C41.8277 38.9724 42.6536 37.6939 42.644 36.0116L42.4711 8.92234C42.4711 7.90336 42.1446 6.98052 41.6068 6.46142C41.2899 6.15381 40.9058 6 40.4929 6L35.2879 6.12497C34.1835 6.15381 33.3577 7.43233 33.3673 9.1146L33.5401 36.2039C33.5401 37.2229 33.8666 38.1457 34.4044 38.6648C34.7213 38.9724 35.0959 39.1358 35.4896 39.1358V39.1262ZM35.3743 7.7784L40.4641 7.66304C40.5793 7.76878 40.8194 8.20137 40.829 8.94156L41.0018 36.0309C41.0018 36.7711 40.7618 37.2421 40.6369 37.3575L35.5472 37.4728C35.432 37.3671 35.1919 36.9345 35.1823 36.1943L35.0094 9.10498C35.0094 8.36479 35.2495 7.89375 35.3743 7.7784Z" fill="#141722"/>
<path d="M14.3837 21.457C14.0284 21.1109 13.5866 20.9282 13.1353 20.9379L7.93033 21.0244C6.83556 21.0532 5.99048 22.1106 6.00008 23.4372L6.11532 36.905C6.11532 37.6259 6.38421 38.2989 6.84517 38.7411C7.19088 39.0775 7.62303 39.2601 8.07438 39.2601H8.10319L13.3177 39.1736C14.4125 39.1544 15.2576 38.097 15.2384 36.7608L15.1232 23.293C15.1232 22.5721 14.8543 21.8992 14.3933 21.457H14.3837ZM13.2793 37.5202L8.07438 37.6067C8.01676 37.6067 7.77668 37.3664 7.77668 36.8858L7.66144 23.418C7.66144 22.9277 7.90152 22.6778 7.95914 22.6778L13.1641 22.5913C13.2313 22.5913 13.4618 22.8412 13.4618 23.3123L13.577 36.78C13.577 37.2703 13.337 37.5202 13.2793 37.5202Z" fill="#141722"/>
</g>
<defs>
<clipPath id="clip0_1753_39503">
<rect width="38" height="38" fill="white" transform="translate(6 6)"/>
</clipPath>
</defs>
</svg>
