<svg width="32" height="32" viewBox="0 0 32 32" fill="none" xmlns="http://www.w3.org/2000/svg">
<rect width="32" height="32" rx="16" fill="#EFE9E0" fill-opacity="0.7"/>
<path d="M20.6875 8.75C18.7516 8.75 17.0566 9.5825 16 10.9897C14.9434 9.5825 13.2484 8.75 11.3125 8.75C9.77146 8.75174 8.29404 9.36468 7.20436 10.4544C6.11468 11.544 5.50174 13.0215 5.5 14.5625C5.5 21.125 15.2303 26.4369 15.6447 26.6562C15.7539 26.715 15.876 26.7458 16 26.7458C16.124 26.7458 16.2461 26.715 16.3553 26.6562C16.7697 26.4369 26.5 21.125 26.5 14.5625C26.4983 13.0215 25.8853 11.544 24.7956 10.4544C23.706 9.36468 22.2285 8.75174 20.6875 8.75Z" fill="#141722"/>
</svg>
