<svg width="20" height="20" viewBox="0 0 20 20" fill="none" xmlns="http://www.w3.org/2000/svg">
<path fill-rule="evenodd" clip-rule="evenodd" d="M3.4375 4.375C2.91973 4.375 2.5 4.79473 2.5 5.3125V14.6875C2.5 15.2053 2.91973 15.625 3.4375 15.625H16.5625C17.0803 15.625 17.5 15.2053 17.5 14.6875V5.3125C17.5 4.79473 17.0803 4.375 16.5625 4.375H3.4375ZM1.25 5.3125C1.25 4.10438 2.22938 3.125 3.4375 3.125H16.5625C17.7706 3.125 18.75 4.10438 18.75 5.3125V14.6875C18.75 15.8956 17.7706 16.875 16.5625 16.875H3.4375C2.22938 16.875 1.25 15.8956 1.25 14.6875V5.3125Z" fill="#EFE9E0"/>
<path fill-rule="evenodd" clip-rule="evenodd" d="M3.88168 5.86632C4.0936 5.59385 4.48627 5.54476 4.75874 5.75668L10 9.83324L15.2413 5.75668C15.5138 5.54476 15.9065 5.59385 16.1184 5.86632C16.3303 6.13878 16.2812 6.53146 16.0087 6.74337L10.3837 11.1184C10.158 11.2939 9.84201 11.2939 9.61632 11.1184L3.99132 6.74337C3.71885 6.53146 3.66976 6.13878 3.88168 5.86632Z" fill="#EFE9E0"/>
</svg>
